<svg xmlns="http://www.w3.org/2000/svg" viewBox="0 0 520 96" role="img" aria-labelledby="title desc">
  <title id="title">ENA</title>
  <desc id="desc">Epistemic Network Analysis logo with a connected network mark.</desc>
  <g transform="translate(4 4) scale(1.375)">
    <rect x="1" y="1" width="62" height="62" rx="15" fill="#eef7f5" stroke="#c8ddd8" stroke-width="2"/>
    <g fill="none" stroke-linecap="round">
      <path d="M16 19 32 12 49 21" stroke="#56b09d" stroke-width="4.5"/>
      <path d="M16 19 14 40 30 51" stroke="#2d4b46" stroke-width="2.5"/>
      <path d="M49 21 46 43 30 51" stroke="#56b09d" stroke-width="3.5"/>
      <path d="M16 19 35 31 49 21" stroke="#2d4b46" stroke-width="2"/>
      <path d="M14 40 35 31 46 43" stroke="#56b09d" stroke-width="5"/>
      <path d="M35 31 30 51" stroke="#2d4b46" stroke-width="2.25"/>
    </g>
    <g fill="#eef7f5" stroke="#2d4b46" stroke-width="2.5">
      <circle cx="16" cy="19" r="4.5"/>
      <circle cx="32" cy="12" r="4.5"/>
      <circle cx="49" cy="21" r="4.5"/>
      <circle cx="14" cy="40" r="4.5"/>
      <circle cx="30" cy="51" r="4.5"/>
      <circle cx="46" cy="43" r="4.5"/>
    </g>
    <circle cx="35" cy="31" r="5.5" fill="#56b09d" stroke="#2d4b46" stroke-width="2.5"/>
  </g>
  <text x="118" y="49" fill="#20332f" font-family="Arial, Helvetica, sans-serif" font-size="46" font-weight="800" letter-spacing="-1">ENA</text>
  <text x="120" y="72" fill="#5b716c" font-family="Arial, Helvetica, sans-serif" font-size="17" font-weight="600">Epistemic Network Analysis</text>
</svg>
